<?xml version="1.0" encoding="UTF-8"?><svg xmlns="http://www.w3.org/2000/svg" xmlns:xlink="http://www.w3.org/1999/xlink" contentScriptType="text/ecmascript" width="384" zoomAndPan="magnify" contentStyleType="text/css" viewBox="0 0 384 383.999986" height="383.999986" preserveAspectRatio="xMidYMid meet" version="1.0"><defs><clipPath id="clip-0"><path d="M 49 28.097656 L 334.707031 28.097656 L 334.707031 355.847656 L 49 355.847656 Z M 49 28.097656 " clip-rule="nonzero"/></clipPath></defs><path fill="rgb(82.749939%, 82.749939%, 82.749939%)" d="M 264.359375 320.332031 C 253.898438 301.65625 231.789062 288.808594 205.90625 288.808594 C 182.722656 288.808594 162.554688 299.171875 151.121094 314.71875 C 143.574219 310.941406 134.835938 308.886719 125.453125 308.886719 C 97.199219 308.886719 74.226562 328.320312 73.363281 352.609375 L 331.332031 352.609375 C 318.929688 333.824219 303.941406 320.441406 264.359375 320.332031 Z M 264.359375 320.332031 " fill-opacity="1" fill-rule="nonzero"/><path fill="rgb(75.289917%, 92.939758%, 78.039551%)" d="M 183.152344 239.367188 C 183.152344 239.367188 136.5625 240.660156 97.628906 207.195312 C 58.699219 173.730469 52.765625 110.253906 52.335938 110.792969 C 52.335938 110.792969 111.21875 99.347656 154.679688 138.859375 C 198.144531 178.371094 183.152344 239.367188 183.152344 239.367188 Z M 283.125 140.695312 C 283.125 140.695312 243.113281 140.480469 220.898438 167.898438 C 192.210938 203.308594 204.074219 245.410156 204.074219 245.410156 C 204.074219 245.410156 253.792969 233.105469 271.800781 197.261719 C 284.203125 172.324219 283.125 140.695312 283.125 140.695312 Z M 283.125 140.695312 " fill-opacity="1" fill-rule="nonzero"/><path fill="rgb(68%, 85%, 90%)" d="M 177.003906 67.933594 C 177.003906 74.628906 170.859375 82.941406 158.996094 82.941406 C 147.132812 82.941406 140.984375 74.628906 140.984375 67.933594 C 140.875 50.878906 158.996094 31.335938 158.996094 31.335938 C 158.996094 31.335938 177.003906 50.878906 177.003906 67.933594 Z M 245.703125 31.335938 C 245.703125 31.335938 227.691406 50.878906 227.691406 67.933594 C 227.691406 74.628906 233.839844 82.941406 245.703125 82.941406 C 257.566406 82.941406 263.714844 74.628906 263.714844 67.933594 C 263.714844 50.878906 245.703125 31.335938 245.703125 31.335938 Z M 202.347656 78.296875 C 202.347656 78.296875 184.339844 97.835938 184.339844 114.894531 C 184.339844 121.585938 190.484375 129.898438 202.347656 129.898438 C 214.210938 129.898438 220.359375 121.585938 220.359375 114.894531 C 220.359375 97.835938 202.347656 78.296875 202.347656 78.296875 Z M 202.347656 78.296875 " fill-opacity="1" fill-rule="nonzero"/><g clip-path="url(#clip-0)"><path fill="rgb(24.708557%, 24.708557%, 24.708557%)" d="M 334.027344 350.773438 C 320.65625 330.371094 304.480469 317.523438 266.300781 317.09375 C 254.546875 297.554688 231.574219 285.570312 206.015625 285.570312 C 204.398438 285.570312 202.671875 285.679688 201.054688 285.785156 C 202.023438 273.261719 203.75 260.523438 206.878906 248.003906 C 216.691406 245.195312 258.105469 231.699219 274.605469 198.667969 C 287.332031 173.40625 286.359375 141.882812 286.359375 140.585938 C 286.253906 138.859375 284.851562 137.457031 283.125 137.457031 C 281.507812 137.457031 241.28125 137.457031 218.308594 165.847656 C 190.484375 200.285156 199.328125 240.121094 200.730469 245.628906 C 198.464844 254.371094 196.957031 263.222656 195.769531 272.074219 C 193.722656 262.574219 190.808594 251.347656 186.386719 239.472656 C 187.898438 232.566406 198.683594 174.484375 156.835938 136.484375 C 112.730469 96.21875 54.167969 107.121094 51.6875 107.554688 C 50.285156 107.878906 49.207031 109.066406 49.097656 110.574219 C 49.097656 111.007812 49.097656 111.441406 49.316406 111.761719 C 49.421875 112.085938 49.421875 112.628906 49.53125 113.382812 C 56.324219 155.808594 72.609375 190.03125 95.472656 209.679688 C 130.308594 239.582031 170.425781 242.386719 180.671875 242.605469 C 187.035156 260.199219 190.269531 276.285156 191.886719 286.757812 C 175.0625 289.78125 160.074219 298.199219 150.042969 310.722656 C 142.496094 307.378906 133.972656 305.648438 125.453125 305.648438 C 95.367188 305.648438 71.101562 326.269531 70.128906 352.503906 C 70.128906 353.367188 70.453125 354.230469 70.992188 354.878906 C 71.53125 355.523438 72.394531 355.847656 73.363281 355.847656 L 331.332031 355.847656 C 332.519531 355.847656 333.597656 355.199219 334.136719 354.121094 C 334.675781 353.042969 334.675781 351.855469 334.027344 350.773438 Z M 181.75 227.597656 C 169.132812 198.773438 147.996094 168.117188 112.621094 150.628906 C 111.003906 149.871094 109.0625 150.519531 108.308594 152.136719 C 107.550781 153.757812 108.199219 155.699219 109.816406 156.457031 C 145.945312 174.378906 166.542969 206.65625 178.300781 236.019531 C 165.574219 235.261719 130.09375 230.835938 99.789062 204.820312 C 78.21875 186.359375 62.796875 153.972656 56.109375 113.492188 C 68.726562 111.871094 116.394531 108.308594 152.523438 141.234375 C 183.152344 169.085938 183.582031 208.597656 181.75 227.597656 Z M 223.378906 169.84375 C 240.742188 148.359375 270.183594 144.582031 279.890625 143.933594 C 279.78125 152.570312 278.488281 176.429688 268.78125 195.644531 C 255.195312 222.742188 222.085938 236.019531 208.820312 240.445312 C 215.183594 219.394531 225.75 199.207031 243.4375 181.71875 C 244.734375 180.421875 244.734375 178.371094 243.4375 177.183594 C 242.144531 175.886719 240.09375 175.886719 238.910156 177.183594 C 222.410156 193.378906 211.839844 211.835938 205.046875 231.054688 C 204.074219 216.261719 205.800781 191.648438 223.378906 169.84375 Z M 76.925781 349.371094 C 79.621094 328.210938 100.328125 312.128906 125.5625 312.128906 C 134.082031 312.128906 142.496094 314.070312 149.71875 317.632812 C 151.121094 318.28125 152.847656 317.957031 153.710938 316.660156 C 162.660156 304.460938 176.789062 296.148438 192.859375 293.234375 C 193.289062 297.121094 193.503906 299.386719 193.503906 299.496094 C 193.503906 299.820312 193.613281 300.144531 193.722656 300.46875 C 193.613281 304.679688 193.503906 308.886719 193.503906 312.992188 C 193.503906 314.824219 194.90625 316.230469 196.742188 316.230469 C 198.464844 316.230469 199.976562 314.824219 199.976562 312.992188 C 199.976562 306.191406 200.191406 299.171875 200.625 292.15625 C 202.457031 292.046875 204.183594 291.941406 206.015625 291.941406 C 229.632812 291.941406 251.527344 303.707031 261.664062 321.84375 C 262.203125 322.816406 263.28125 323.460938 264.46875 323.460938 C 298.007812 323.570312 313.105469 332.960938 325.1875 349.261719 L 76.925781 349.261719 Z M 158.996094 86.179688 C 145.730469 86.179688 137.75 76.894531 137.75 67.933594 C 137.75 49.90625 155.867188 29.933594 156.621094 29.179688 C 157.808594 27.882812 160.179688 27.882812 161.367188 29.179688 C 162.121094 30.042969 180.242188 49.90625 180.242188 67.933594 C 180.242188 76.894531 172.261719 86.179688 158.996094 86.179688 Z M 158.996094 36.304688 C 154.25 42.132812 144.113281 55.949219 144.113281 67.933594 C 144.113281 72.683594 148.855469 79.699219 158.886719 79.699219 C 168.917969 79.699219 173.660156 72.683594 173.660156 67.933594 C 173.769531 55.949219 163.632812 42.132812 158.996094 36.304688 Z M 245.703125 86.179688 C 232.4375 86.179688 224.457031 76.894531 224.457031 67.933594 C 224.457031 49.90625 242.574219 29.933594 243.332031 29.179688 C 244.515625 27.882812 246.890625 27.882812 248.074219 29.179688 C 248.832031 30.042969 266.949219 49.90625 266.949219 67.933594 C 266.949219 76.894531 258.96875 86.179688 245.703125 86.179688 Z M 245.703125 36.304688 C 240.957031 42.132812 230.929688 55.949219 230.929688 67.933594 C 230.929688 72.683594 235.671875 79.699219 245.703125 79.699219 C 255.734375 79.699219 260.476562 72.683594 260.476562 67.933594 C 260.476562 55.949219 250.449219 42.132812 245.703125 36.304688 Z M 202.347656 133.136719 C 189.082031 133.136719 181.101562 123.855469 181.101562 114.894531 C 181.101562 96.867188 199.222656 76.894531 199.976562 76.136719 C 201.164062 74.84375 203.535156 74.84375 204.722656 76.136719 C 205.476562 77.003906 223.59375 96.867188 223.59375 114.894531 C 223.59375 123.855469 215.613281 133.136719 202.347656 133.136719 Z M 202.347656 83.261719 C 197.605469 89.09375 187.574219 102.910156 187.574219 114.894531 C 187.574219 119.644531 192.320312 126.660156 202.347656 126.660156 C 212.378906 126.660156 217.125 119.644531 217.125 114.894531 C 217.125 102.910156 207.09375 89.09375 202.347656 83.261719 Z M 202.347656 83.261719 " fill-opacity="1" fill-rule="nonzero"/></g></svg>